# xmcd
#
# Track frame offsets: 
#        15164
#        31158
#        48145
#        69693
#        83458
#        99823
#        119411
#        137623
#        152725
#        172185
#        188282
#        206078
#
# Disc length: 3030 seconds
#
# Revision: 0
# Processed by: cddbd v1.5.2PL0 Copyright (c) Steve Scherf et al.
# Submitted via: ExactAudioCopy v0.99pb5
#
DISCID=930b0c0c
DTITLE=Carrie Underwood - Carnival Ride
DYEAR=2007
DGENRE=Country
TTITLE0=All-American Girl
TTITLE1=So Small
TTITLE2=Just A Dream
TTITLE3=Get Out Of This Town
TTITLE4=Crazy Dreams
TTITLE5=I Know You Won't
TTITLE6=Last Name
TTITLE7=You Won't Find This
TTITLE8=I Told You So
TTITLE9=The More Boys I Meet
TTITLE10=Twisted
TTITLE11=Wheel Of The World
EXTD=
EXTT0=
EXTT1=
EXTT2=
EXTT3=
EXTT4=
EXTT5=
EXTT6=
EXTT7=
EXTT8=
EXTT9=
EXTT10=
EXTT11=
PLAYORDER=
